<?xml version="1.0" standalone="no"?>
<!DOCTYPE svg PUBLIC "-//W3C//DTD SVG 1.1//EN" "http://www.w3.org/Graphics/SVG/1.1/DTD/svg11.dtd" >
<svg xmlns="http://www.w3.org/2000/svg">
<metadata>Generated by IcoMoon</metadata>
<defs>
<font id="ic-iconfont" horiz-adv-x="1024">
<font-face units-per-em="1024" ascent="960" descent="-64" />
<missing-glyph horiz-adv-x="1024" />
<glyph unicode="&#x20;" horiz-adv-x="512" d="" />
<glyph unicode="&#xe897;" glyph-name="lock" d="M644 608.857v86c0 72-60 132-132 132s-132-60-132-132v-86h264zM512 224.857c46 0 86 40 86 86s-40 86-86 86-86-40-86-86 40-86 86-86zM768 608.857c46 0 86-38 86-84v-428c0-46-40-84-86-84h-512c-46 0-86 38-86 84v428c0 46 40 84 86 84h42v86c0 118 96 214 214 214s214-96 214-214v-86h42z" />
<glyph unicode="&#xe900;" glyph-name="email" d="M512-73.143c-282.77 0-512 229.23-512 512s229.23 512 512 512c282.77 0 512-229.23 512-512-0.248-282.67-229.33-511.752-511.976-512zM512 929.070c-270.737 0-490.213-219.476-490.213-490.213s219.476-490.213 490.213-490.213c270.737 0 490.213 219.476 490.213 490.213-0.248 270.637-219.575 489.965-490.189 490.213zM795.234 188.304h-566.468c-6.016 0-10.894 4.877-10.894 10.894v305.021c0 0.009 0 0.019 0 0.030 0 6.016 4.877 10.894 10.894 10.894 1.918 0 3.719-0.495 5.285-1.365l277.95-142.896 278.005 145.103c1.51 0.842 3.311 1.337 5.229 1.337 6.016 0 10.894-4.877 10.894-10.894 0-0.010 0-0.021 0-0.031v-305.020c0.14-0.656 0.221-1.409 0.221-2.181 0-6.016-4.877-10.894-10.894-10.894-0.078 0-0.155 0.001-0.232 0.002zM239.66 210.091h544.681v54.468l-199.135 118.523-67.976-35.731c-1.455-0.769-3.18-1.221-5.011-1.221s-3.556 0.452-5.071 1.25l-67.917 35.702-199.571-118.523v-55.775zM607.864 395.283l174.298-105.014v197.828zM239.66 488.096v-196.957l176.477 104.143zM512 444.522c-0.785-0.202-1.686-0.318-2.614-0.318s-1.829 0.116-2.69 0.335l-283.159 150.316c-3.401 1.888-5.665 5.458-5.665 9.557 0 0.010 0 0.021 0 0.031v74.075c0 6.016 4.877 10.894 10.894 10.894h566.468c6.016 0 10.894-4.877 10.894-10.894v-74.077c0-0.009 0-0.019 0-0.030 0-4.099-2.264-7.669-5.609-9.528l-283.29-147.746c-1.496-0.823-3.279-1.307-5.174-1.307-0.019 0-0.038 0-0.057 0zM239.66 613.155l272.34-143.796 272.34 143.796v54.468h-544.681v-54.468z" />
<glyph unicode="&#xe901;" glyph-name="facebook2" d="M512-73.143c-282.77 0-512 229.23-512 512s229.23 512 512 512c282.77 0 512-229.23 512-512-0.248-282.67-229.33-511.752-511.976-512zM512 929.070c-270.737 0-490.213-219.476-490.213-490.213s219.476-490.213 490.213-490.213c270.737 0 490.213 219.476 490.213 490.213-0.248 270.637-219.575 489.965-490.189 490.213zM577.362 144.729h-130.723c-6.016 0-10.894 4.877-10.894 10.894v294.128h-76.255c-6.016 0-10.894 4.877-10.894 10.894v87.149c0 6.016 4.877 10.894 10.894 10.894h76.255v39.653c0 87.149 43.574 133.774 126.366 133.774h102.4c6.016 0 10.894-4.877 10.894-10.894v-100.657c0-6.016-4.877-10.894-10.894-10.894h-61.44c-0.069 0.001-0.151 0.002-0.233 0.002-8.182 0-14.815-6.633-14.815-14.815 0-0.925 0.085-1.83 0.247-2.707l-0.014-33.461h91.071c0.023 0 0.051 0 0.079 0 6.016 0 10.894-4.877 10.894-10.894 0-0.461-0.029-0.915-0.084-1.361l-10.452-87.096c-0.675-5.428-5.259-9.587-10.815-9.587-0.028 0-0.055 0-0.083 0h-80.609v-294.128c0-6.016-4.877-10.894-10.894-10.894zM457.532 166.517h108.936v294.128c0 6.016 4.877 10.894 10.894 10.894h81.484l7.843 65.362h-89.328c-6.016 0-10.894 4.877-10.894 10.894v43.574c-0.109 1.050-0.172 2.268-0.172 3.501 0 19.734 15.997 35.731 35.731 35.731 0.367 0 0.733-0.006 1.097-0.017l50.493 0.001v79.741h-91.506c-69.283 0-104.579-37.474-104.579-111.986v-50.546c0-6.016-4.877-10.894-10.894-10.894h-76.255v-65.362h76.255c6.016 0 10.894-4.877 10.894-10.894v-294.128z" />
<glyph unicode="&#xe902;" glyph-name="pinterest2" d="M512-73.143c-282.77 0-512 229.23-512 512s229.23 512 512 512c282.77 0 512-229.23 512-512-0.248-282.67-229.33-511.752-511.976-512zM512 929.070c-270.737 0-490.213-219.476-490.213-490.213s219.476-490.213 490.213-490.213c270.737 0 490.213 219.476 490.213 490.213-0.248 270.637-219.575 489.965-490.189 490.213zM369.947 79.368h-3.922c-6.074 1.546-10.889 6.863-11.756 13.426-4.379 23.533-6.879 50.515-6.879 78.080s2.5 54.547 7.285 80.731l50.132 212.090c-7.722 18.773-12.204 40.566-12.204 63.406 0 0.381 0.001 0.762 0.004 1.143 0 63.996 38.781 114.542 87.149 114.542 0.869 0.042 1.886 0.066 2.91 0.066 35.617 0 64.49-28.873 64.49-64.49 0-2.171-0.107-4.318-0.317-6.434 0.377-17.934-7.327-56.306-20.803-91.838-4.885-15.523-10.55-34.26-14.907-52.126-1.060-3.865-1.669-8.303-1.669-12.883 0-11.596 3.905-22.281 10.472-30.81 10.136-12.169 25.432-19.934 42.542-19.934 0.332 0 0.664 0.003 0.995 0.009 66.183-0.001 115.858 87.148 115.858 202.185 0 87.149-59.697 142.489-155.561 142.489-1.96 0.077-4.261 0.12-6.572 0.12-99.15 0-179.527-80.377-179.527-179.527 0-1.268 0.013-2.533 0.039-3.795-0.016-0.467-0.024-1.24-0.024-2.015 0-17.184 3.698-33.505 10.341-48.209 0.278-0.547 0.614-2.048 0.614-3.627 0-4.115-2.282-7.698-5.649-9.551l-65.854-34.888c-1.512-0.845-3.318-1.343-5.239-1.343-4.113 0-7.694 2.279-9.548 5.644-15.437 28.968-24.486 63.283-24.486 99.712 0 1.731 0.020 3.457 0.061 5.178-0.005 127.853 111.11 261.191 297.173 261.191 4.353 0.27 9.44 0.424 14.564 0.424 134.761 0 244.629-106.576 249.918-240.039 0.015-165.627-95.413-285.893-227.008-285.893-0.132 0-0.287-0.001-0.443-0.001-35.626 0-68.081 13.572-92.478 35.829-7.3-28.42-19.065-76.352-22.551-87.246 6.298-4.529-26.371-75.993-74.246-134.537-2.124-3.568-7.11-6.713-12.852-7.077zM375.612 97.669v0zM366.026 97.669v0zM482.369 620.563c-37.038 0-66.233-40.524-66.233-92.814-0.003-0.366-0.005-0.799-0.005-1.232 0-20.66 4.331-40.308 12.134-58.087 0.048-0.173 0.285-1.446 0.285-2.775s-0.238-2.602-0.673-3.779l-51.393-217.797c-4.501-22.548-7.077-48.471-7.077-74.995 0-21.051 1.623-41.723 4.749-61.898 1.176-5.045 39.465 51.823 61.226 116.299 5.592 20.593 29.122 112.535 29.122 112.535 1.352 4.588 5.526 7.879 10.468 7.879 4.113 0 7.694-2.279 9.548-5.644 19.151-26.588 49.965-43.659 84.767-43.659 0.848 0 1.693 0.010 2.536 0.030 120.576-0.002 205.111 108.498 205.111 261.444-5.742 121.765-105.86 218.312-228.527 218.312-4.99 0-9.942-0.16-14.853-0.474-112.624 2.649-273.849-73.606-273.849-236.575-0.029-1.278-0.046-2.784-0.046-4.295 0-29.011 6.11-56.594 17.113-81.534l46.987 26.567c-4.973 13.987-7.847 30.121-7.847 46.925 0 0.354 0.001 0.708 0.004 1.061-0.006 0.5-0.009 1.155-0.009 1.81 0 110.942 89.936 200.878 200.878 200.878 2.455 0 4.899-0.044 7.333-0.131 107.712 0.010 176.996-64.48 176.996-164.266 0-127.673-59.261-223.973-137.695-223.973-0.44-0.009-0.958-0.014-1.477-0.014-23.961 0-45.355 10.988-59.418 28.2-9.696 12.191-15.49 27.633-15.49 44.43 0 6.405 0.843 12.613 2.423 18.519 4.244 18.238 10.344 36.975 16.009 55.712 5.255 8.533 15.349 44.481 19.065 82.301 0.422 3.327 0.601 5.592 0.601 7.9 0 23.933-19.294 43.359-43.176 43.573z" />
<glyph unicode="&#xe903;" glyph-name="reddit" d="M512-73.143c-282.77 0-512 229.23-512 512s229.23 512 512 512c282.77 0 512-229.23 512-512-0.248-282.67-229.33-511.752-511.976-512zM512 929.070c-270.737 0-490.213-219.476-490.213-490.213s219.476-490.213 490.213-490.213c270.737 0 490.213 219.476 490.213 490.213-0.248 270.637-219.575 489.965-490.189 490.213zM512 139.936c-154.689 0-280.62 87.149-280.62 195.649s125.93 195.649 280.62 195.649 281.055-87.149 281.055-195.649-126.366-195.649-281.055-195.649zM512 509.448c-142.924 0-258.832-77.998-258.832-174.298s116.344-174.298 258.832-174.298 259.268 77.998 259.268 174.298-116.344 174.298-259.268 174.298zM512 217.934c-0.86-0.012-1.875-0.020-2.892-0.020-37.948 0-73.594 9.86-104.515 27.157-2.492 1.415-4.875 5.162-4.875 9.465 0 6.3 5.107 11.407 11.407 11.407 1.997 0 3.873-0.513 5.506-1.414 27.622-14.42 60.397-22.897 95.151-22.897s67.53 8.477 96.37 23.476c0.613 0.753 2.839 1.534 5.247 1.534 6.016 0 10.894-4.877 10.894-10.894 0-4.391-2.597-8.175-6.34-9.899-30.484-17.546-67.008-27.901-105.949-27.916zM625.729 324.692c-29.601 0-53.597 23.996-53.597 53.597s23.996 53.597 53.597 53.597c29.601 0 53.597-23.996 53.597-53.597s-23.996-53.597-53.597-53.597c0 0 0 0 0 0zM625.729 411.841c-17.568 0-31.809-14.242-31.809-31.809s14.242-31.809 31.809-31.809c17.568 0 31.809 14.242 31.809 31.809-0.95 16.802-14.807 30.066-31.762 30.066-0.017 0-0.034 0-0.050 0zM398.271 324.692c-29.601 0-53.597 23.996-53.597 53.597s23.996 53.597 53.597 53.597c29.601 0 53.597-23.996 53.597-53.597s-23.996-53.597-53.597-53.597c0 0 0 0 0 0zM398.271 411.841c-17.568 0-31.809-14.242-31.809-31.809s14.242-31.809 31.809-31.809c17.568 0 31.809 14.242 31.809 31.809-0.95 16.802-14.807 30.066-31.762 30.066-0.017 0-0.034 0-0.050 0zM778.676 353.887c-6.016 0-10.894 4.877-10.894 10.894s4.877 10.894 10.894 10.894c28.46 5.112 49.775 29.684 49.775 59.234 0 33.21-26.922 60.133-60.133 60.133-23.004 0-42.991-12.917-53.103-31.894-2.11-3.446-5.528-5.491-9.425-5.491-6.016 0-10.894 4.877-10.894 10.894 0 1.225 0.202 2.402 0.575 3.501 13.517 27.602 41.471 46.328 73.798 46.328 45.243 0 81.92-36.677 81.92-81.92 0-40.536-29.442-74.196-68.109-80.761l-0.483-0.068zM739.459 552.151c-45.243 0-81.92 36.677-81.92 81.92s36.677 81.92 81.92 81.92c45.243 0 81.92-36.677 81.92-81.92s-36.677-81.92-81.92-81.92c0 0 0 0 0 0zM739.459 694.203c-33.21 0-60.133-26.922-60.133-60.133s26.922-60.133 60.133-60.133c33.21 0 60.133 26.922 60.133 60.133 0 0 0 0 0 0 0 33.21-26.922 60.133-60.133 60.133 0 0 0 0 0 0zM245.324 353.887v0c-39.15 6.633-68.592 40.292-68.592 80.829 0 45.243 36.677 81.92 81.92 81.92 32.328 0 60.282-18.726 73.607-45.922 0.913-1.882 1.323-3.531 1.323-5.276 0-6.027-4.886-10.913-10.913-10.913-4.282 0-7.989 2.467-9.776 6.057-10.299 19.364-30.285 32.281-53.289 32.281-33.21 0-60.133-26.922-60.133-60.133 0-29.55 21.315-54.122 49.409-59.179 3.216-2.047 5.058-5.314 5.058-9.011 0-5.209-3.656-9.564-8.542-10.639zM512 509.448c-6.016 0-10.894 4.877-10.894 10.894 0 4.357 0 107.629 55.775 140.31 13.16 5.736 28.492 9.074 44.603 9.074 27.67 0 53.041-9.844 72.802-26.22 2.999-1.799 5.094-5.263 5.094-9.216 0-6.046-4.902-10.948-10.948-10.948-2.093 0-4.049 0.588-5.712 1.607-16.518 14.195-38.222 22.853-61.947 22.853-11.846 0-23.188-2.159-33.655-6.104-45.096-25.927-42.917-120.048-42.917-120.92 0-6.016-4.877-10.894-10.894-10.894v0z" />
<glyph unicode="&#xe904;" glyph-name="tumblr2" d="M512-73.143c-282.77 0-512 229.23-512 512s229.23 512 512 512c282.77 0 512-229.23 512-512-0.248-282.67-229.33-511.752-511.976-512zM512 929.070c-270.737 0-490.213-219.476-490.213-490.213s219.476-490.213 490.213-490.213c270.737 0 490.213 219.476 490.213 490.213-0.248 270.637-219.575 489.965-490.189 490.213zM551.217 153.88c-0.223-0.001-0.487-0.002-0.751-0.002-29.677 0-57.304 8.778-80.427 23.878-47.67 36.216-78.505 93.551-78.505 158.088 0 5.584 0.231 11.113 0.683 16.58l-0.048 184.475h-76.255c-6.016 0-10.894 4.877-10.894 10.894v59.261c-0.001 0.041-0.001 0.089-0.001 0.137 0 4.769 3.065 8.822 7.332 10.298 2.846-2.707 38.948 10.982 69.728 31.913 0.525-3.444 22.891 19.559 37.132 47.406 7.859 11.826 17.635 39.575 20.814 69.298 0.75 6.294 5.334 10.453 10.89 10.453 0.028 0 0.055 0 0.083 0h82.787c6.016 0 10.894-4.877 10.894-10.894v-119.83h76.255c6.016 0 10.894-4.877 10.894-10.894v-87.149c0-6.016-4.877-10.894-10.894-10.894h-76.255v-151.203c-0.756-4.31-1.188-9.274-1.188-14.338 0-27.193 12.455-51.477 31.971-67.46 7.948-2.654 16.916-4.113 26.225-4.113 21.716 0 41.576 7.942 56.835 21.081 1.5 0.902 3.456 1.493 5.551 1.493s4.051-0.591 5.712-1.616c3.354-1.861 5.618-5.431 5.618-9.53 0-0.010 0-0.021 0-0.031v-117.649c0.002-0.071 0.003-0.155 0.003-0.238 0-4.272-2.459-7.97-6.040-9.755-31.251-16.865-73.216-28.514-117.795-29.652zM326.809 558.687h76.255c6.016 0 10.894-4.877 10.894-10.894v-196.085c-0.433-4.651-0.681-10.058-0.681-15.522 0-57.006 26.896-107.729 68.69-140.174 43.977-27.317 101.931-25.138 171.214 6.236v91.506c-14.344-9.532-31.965-15.21-50.912-15.21-13.089 0-25.545 2.709-36.838 7.598-18.572 10.226-42.973 35.935-42.973 100.861v160.79c0 6.016 4.877 10.894 10.894 10.894h76.255v65.362h-75.82c-6.016 0-10.894 4.877-10.894 10.894v119.83h-64.054c0.482-11.63-7.953-41.621-21.906-68.268 3.871-0.576-15.992-31.414-42.782-54.413 2.278-2.145-29.796-22.063-65.799-32.916l-1.543-40.488z" />
<glyph unicode="&#xe905;" glyph-name="twitter2" d="M415.265 200.94c-0.139 0-0.303 0-0.467 0-67.317 0-130.004 19.825-182.541 53.954-1.691 1.181-3.638 4.528-3.638 8.33 0 1.258 0.213 2.466 0.606 3.59 1.58 4.069 5.535 6.956 10.163 6.956 0.403 0 0.8-0.022 1.192-0.064 8.183-1.098 17.7-1.727 27.363-1.727 41.907 0 81.050 11.832 114.272 32.337-39.004 7.703-74.108 39.909-87.835 81.798-1.094 2.4-1.59 4.202-1.59 6.119s0.495 3.719 1.365 5.285c1.976 2.189 4.878 3.595 8.108 3.595 0.666 0 1.319-0.060 1.952-0.174l2.112 0.010c-33.482 22.565-55.466 60.536-55.775 103.66 0 0.050 0 0.053 0 0.057 0 4.129 2.051 7.779 5.19 9.987 1.601 0.943 3.48 1.485 5.486 1.485s3.884-0.542 5.498-1.487l10.842-5.201c-16.284 21.009-26.104 47.741-26.104 76.767 0 23.241 6.296 45.011 17.275 63.698 1.674 2.24 4.929 4.067 8.612 4.067s6.938-1.827 8.91-4.624c44.266-59.213 123.326-106.092 213.543-114.967 0.753 4.307 0.439 9.412 0.439 14.591 0 69.309 56.186 125.494 125.494 125.494 34.080 0 64.988-13.585 87.603-35.635 27.861 4.819 77.972 10.483 80.151 10.483 0.406 0.056 0.875 0.088 1.351 0.088 3.886 0 7.277-2.119 9.080-5.266 1.109-1.714 1.752-3.749 1.752-5.934s-0.643-4.219-1.751-5.925c22.149 35.451 0.409 5.363-14.938-28.256 3.593-0.431-13.216-33.178-37.037-59.451l0.147-6.371c0.012-1.040 0.018-2.269 0.018-3.5 0-184.342-149.439-333.78-333.78-333.78-1.079 0-2.157 0.005-3.233 0.015zM284.541 251.487c38.151-17.662 82.799-27.964 129.854-27.964 173.802 0 314.777 140.544 315.477 314.181v14.882c-0.005 0.128-0.008 0.278-0.008 0.429 0 3.555 1.703 6.713 4.338 8.701 1.567-2.556 21.849 21.782 34.054 50.391l5.19 15.863c-17.43-2.179-43.574-5.665-61.004-9.151-0.67-0.147-1.44-0.231-2.23-0.231-3.053 0-5.812 1.256-7.79 3.279-19.026 20.716-46.237 33.653-76.469 33.653-57.276 0-103.707-46.431-103.707-103.707 0-9.17 1.19-18.062 3.425-26.53 0.044-0.069 0.162-0.979 0.162-1.916 0-2.649-0.945-5.077-2.517-6.965-1.918-2.39-4.861-3.918-8.161-3.918-0.19 0-0.379 0.005-0.566 0.015-87.796 2.594-173.644 45.609-233.238 112.519-4.807-10.864-7.424-23.851-7.424-37.45 0-35.905 18.247-67.549 45.974-86.164 3.299-2.219 5.197-5.529 5.197-9.282 0-1.125-0.171-2.211-0.487-3.232-1.75-4.286-5.956-7.315-10.871-7.33-11.757 0.051-26.485 2.948-40.083 8.133 6.314-42.827 39.349-78.191 82.102-87.316 5.696-1.167 9.408-5.549 9.408-10.798s-3.713-9.631-8.655-10.663c-10.312-2.806-22.072-4.411-34.206-4.411-1.174 0-2.345 0.015-3.511 0.045 17.264-32.586 51.113-54.985 90.265-55.777 6.123-0.002 11-4.879 11-10.895 0-3.552-1.7-6.706-4.33-8.695-30.387-25.973-78.309-46.493-130.88-50.090zM512-73.143c-282.77 0-512 229.23-512 512s229.23 512 512 512c282.77 0 512-229.23 512-512-0.248-282.67-229.33-511.752-511.976-512zM512 929.070c-270.737 0-490.213-219.476-490.213-490.213s219.476-490.213 490.213-490.213c270.737 0 490.213 219.476 490.213 490.213-0.248 270.637-219.575 489.965-490.189 490.213z" />
<glyph unicode="&#xe906;" glyph-name="linkedin2" d="M512-73.143c-282.77 0-512 229.23-512 512s229.23 512 512 512c282.77 0 512-229.23 512-512-0.248-282.67-229.33-511.752-511.976-512zM512 929.070c-270.737 0-490.213-219.476-490.213-490.213s219.476-490.213 490.213-490.213c270.737 0 490.213 219.476 490.213 490.213-0.248 270.637-219.575 489.965-490.189 490.213zM795.234 231.878h-130.723c-6.016 0-10.894 4.877-10.894 10.894v152.511c0 6.016-4.877 10.894-10.894 10.894s-10.894-4.877-10.894-10.894v-152.511c0-6.016-4.877-10.894-10.894-10.894h-130.723c-6.016 0-10.894 4.877-10.894 10.894 0 2.614 0 282.363 0 305.021-0.006 0.13-0.009 0.283-0.009 0.436 0 6.016 4.877 10.894 10.894 10.894 0.003 0 0.006 0 0.009 0h130.723c6.016 0 10.894-4.877 10.894-10.894v-11.329c17.040 11.491 38.034 18.342 60.628 18.342 1.052 0 2.1-0.015 3.144-0.044 73.487 0.003 110.526-51.85 110.526-154.686v-157.74c0-6.016-4.877-10.894-10.894-10.894zM675.404 253.666h108.936v146.846c0 87.149-29.195 130.723-87.149 130.723-2.009 0.191-4.344 0.3-6.704 0.3-23.443 0-44.371-10.763-58.115-27.617-2.161-3.241-5.638-5.261-9.587-5.261-0.966 0-1.904 0.121-2.8 0.349-4.491 1.347-7.765 5.512-7.765 10.441 0 0 0 0 0 0v27.452h-110.679c0-50.982 0-235.302 0-283.234h108.936v141.617c0 18.049 14.632 32.681 32.681 32.681s32.681-14.632 32.681-32.681v-141.617zM403.064 231.878h-87.149c-6.016 0-10.894 4.877-10.894 10.894v305.021c0 6.016 4.877 10.894 10.894 10.894h87.149c6.016 0 10.894-4.877 10.894-10.894v-305.021c0-6.016-4.877-10.894-10.894-10.894zM326.809 253.666h65.362v283.234h-65.362v-283.234zM359.489 624.048c-30.082 0-54.468 24.386-54.468 54.468s24.386 54.468 54.468 54.468c30.082 0 54.468-24.386 54.468-54.468s-24.386-54.468-54.468-54.468zM359.489 711.197c-18.049 0-32.681-14.632-32.681-32.681s14.632-32.681 32.681-32.681c18.049 0 32.681 14.632 32.681 32.681s-14.632 32.681-32.681 32.681z" />
<glyph unicode="&#xe907;" glyph-name="picture" d="M877.44 657.14l-24.107 2.816v-562.432h-603.051l-10.283-67.712 681.173-62.123 61.995 679.808zM810.667 268.19h-768v-128h768zM301.696 513.822c3.541 5.973 9.771 9.771 16.64 10.325 6.997 0.384 13.611-2.347 18.005-7.637l84.907-101.931 92.629 203.733c3.541 7.851 11.435 12.544 19.925 12.544 8.533-0.213 16.128-5.504 19.328-13.397l122.624-306.603h134.912v597.333h-768v-597.333h137.259l121.771 202.965zM256 780.19c47.061 0 85.333-38.229 85.333-85.333 0-47.061-38.272-85.333-85.333-85.333s-85.333 38.272-85.333 85.333c0 47.104 38.272 85.333 85.333 85.333z" />
<glyph unicode="&#xe908;" glyph-name="play-button" d="M512-73.143c282.325 0 512 229.675 512 512 0 282.283-229.675 512-512 512s-512-229.717-512-512c0-282.325 229.675-512 512-512zM341.333 630.857c0 7.381 3.84 14.251 10.112 18.133 6.272 3.925 14.165 4.267 20.736 0.939l384-192c7.253-3.627 11.819-11.008 11.819-19.072s-4.565-15.445-11.776-19.072l-384-192c-3.029-1.493-6.272-2.261-9.557-2.261-3.883 0-7.808 1.024-11.221 3.157-6.272 3.883-10.112 10.752-10.112 18.176v384z" />
<glyph unicode="&#xf002;" glyph-name="search" horiz-adv-x="951" d="M658.286 475.428q0 105.714-75.143 180.857t-180.857 75.143-180.857-75.143-75.143-180.857 75.143-180.857 180.857-75.143 180.857 75.143 75.143 180.857zM950.857 0q0-29.714-21.714-51.429t-51.429-21.714q-30.857 0-51.429 21.714l-196 195.429q-102.286-70.857-228-70.857-81.714 0-156.286 31.714t-128.571 85.714-85.714 128.571-31.714 156.286 31.714 156.286 85.714 128.571 128.571 85.714 156.286 31.714 156.286-31.714 128.571-85.714 85.714-128.571 31.714-156.286q0-125.714-70.857-228l196-196q21.143-21.143 21.143-51.429z" />
<glyph unicode="&#xf005;" glyph-name="star" horiz-adv-x="951" d="M950.857 581.143q0-12.571-14.857-27.429l-207.429-202.286 49.143-285.714q0.571-4 0.571-11.429 0-12-6-20.286t-17.429-8.286q-10.857 0-22.857 6.857l-256.571 134.857-256.571-134.857q-12.571-6.857-22.857-6.857-12 0-18 8.286t-6 20.286q0 3.429 1.143 11.429l49.143 285.714-208 202.286q-14.286 15.429-14.286 27.429 0 21.143 32 26.286l286.857 41.714 128.571 260q10.857 23.429 28 23.429t28-23.429l128.571-260 286.857-41.714q32-5.143 32-26.286z" />
<glyph unicode="&#xf009;" glyph-name="th-large" horiz-adv-x="951" d="M438.857 365.714v-219.429q0-29.714-21.714-51.429t-51.429-21.714h-292.571q-29.714 0-51.429 21.714t-21.714 51.429v219.429q0 29.714 21.714 51.429t51.429 21.714h292.571q29.714 0 51.429-21.714t21.714-51.429zM438.857 804.571v-219.429q0-29.714-21.714-51.429t-51.429-21.714h-292.571q-29.714 0-51.429 21.714t-21.714 51.429v219.429q0 29.714 21.714 51.429t51.429 21.714h292.571q29.714 0 51.429-21.714t21.714-51.429zM950.857 365.714v-219.429q0-29.714-21.714-51.429t-51.429-21.714h-292.571q-29.714 0-51.429 21.714t-21.714 51.429v219.429q0 29.714 21.714 51.429t51.429 21.714h292.571q29.714 0 51.429-21.714t21.714-51.429zM950.857 804.571v-219.429q0-29.714-21.714-51.429t-51.429-21.714h-292.571q-29.714 0-51.429 21.714t-21.714 51.429v219.429q0 29.714 21.714 51.429t51.429 21.714h292.571q29.714 0 51.429-21.714t21.714-51.429z" />
<glyph unicode="&#xf00d;" glyph-name="close, remove, times" horiz-adv-x="805" d="M741.714 195.428q0-22.857-16-38.857l-77.714-77.714q-16-16-38.857-16t-38.857 16l-168 168-168-168q-16-16-38.857-16t-38.857 16l-77.714 77.714q-16 16-16 38.857t16 38.857l168 168-168 168q-16 16-16 38.857t16 38.857l77.714 77.714q16 16 38.857 16t38.857-16l168-168 168 168q16 16 38.857 16t38.857-16l77.714-77.714q16-16 16-38.857t-16-38.857l-168-168 168-168q16-16 16-38.857z" />
<glyph unicode="&#xf024;" glyph-name="flag" horiz-adv-x="1061" d="M182.857 804.571q0-41.143-36.571-62.857v-723.429q0-7.429-5.429-12.857t-12.857-5.429h-36.571q-7.429 0-12.857 5.429t-5.429 12.857v723.429q-36.571 21.714-36.571 62.857 0 30.286 21.429 51.714t51.714 21.429 51.714-21.429 21.429-51.714zM1024 768v-436q0-14.286-7.143-22t-22.571-15.714q-122.857-66.286-210.857-66.286-34.857 0-70.571 12.571t-62 27.429-66 27.429-81.429 12.571q-109.714 0-265.143-83.429-9.714-5.143-18.857-5.143-14.857 0-25.714 10.857t-10.857 25.714v424q0 18.286 17.714 31.429 12 8 45.143 24.571 134.857 68.571 240.571 68.571 61.143 0 114.286-16.571t125.143-50.286q21.714-10.857 50.286-10.857 30.857 0 67.143 12t62.857 26.857 50.286 26.857 31.143 12q14.857 0 25.714-10.857t10.857-25.714z" />
<glyph unicode="&#xf053;" glyph-name="chevron-left" horiz-adv-x="768" d="M669.143 778.857l-303.429-303.429 303.429-303.429q10.857-10.857 10.857-25.714t-10.857-25.714l-94.857-94.857q-10.857-10.857-25.714-10.857t-25.714 10.857l-424 424q-10.857 10.857-10.857 25.714t10.857 25.714l424 424q10.857 10.857 25.714 10.857t25.714-10.857l94.857-94.857q10.857-10.857 10.857-25.714t-10.857-25.714z" />
<glyph unicode="&#xf054;" glyph-name="chevron-right" horiz-adv-x="695" d="M632.571 449.714l-424-424q-10.857-10.857-25.714-10.857t-25.714 10.857l-94.857 94.857q-10.857 10.857-10.857 25.714t10.857 25.714l303.429 303.429-303.429 303.429q-10.857 10.857-10.857 25.714t10.857 25.714l94.857 94.857q10.857 10.857 25.714 10.857t25.714-10.857l424-424q10.857-10.857 10.857-25.714t-10.857-25.714z" />
<glyph unicode="&#xf05a;" glyph-name="info-circle" horiz-adv-x="878" d="M585.143 164.571v91.429q0 8-5.143 13.143t-13.143 5.143h-54.857v292.571q0 8-5.143 13.143t-13.143 5.143h-182.857q-8 0-13.143-5.143t-5.143-13.143v-91.429q0-8 5.143-13.143t13.143-5.143h54.857v-182.857h-54.857q-8 0-13.143-5.143t-5.143-13.143v-91.429q0-8 5.143-13.143t13.143-5.143h256q8 0 13.143 5.143t5.143 13.143zM512 676.571v91.429q0 8-5.143 13.143t-13.143 5.143h-109.714q-8 0-13.143-5.143t-5.143-13.143v-91.429q0-8 5.143-13.143t13.143-5.143h109.714q8 0 13.143 5.143t5.143 13.143zM877.714 438.857q0-119.429-58.857-220.286t-159.714-159.714-220.286-58.857-220.286 58.857-159.714 159.714-58.857 220.286 58.857 220.286 159.714 159.714 220.286 58.857 220.286-58.857 159.714-159.714 58.857-220.286z" />
<glyph unicode="&#xf064;" glyph-name="mail-forward, share" d="M1024 585.143q0-14.857-10.857-25.714l-292.571-292.571q-10.857-10.857-25.714-10.857t-25.714 10.857-10.857 25.714v146.286h-128q-56 0-100.286-3.429t-88-12.286-76-24.286-60.286-39.714-45.714-57.714-27.714-79.143-10-103.429q0-31.429 2.857-70.286 0-3.429 1.429-13.429t1.429-15.143q0-8.571-4.857-14.286t-13.429-5.714q-9.143 0-16 9.714-4 5.143-7.429 12.571t-7.714 17.143-6 13.714q-72.571 162.857-72.571 257.714 0 113.714 30.286 190.286 92.571 230.286 500 230.286h128v146.286q0 14.857 10.857 25.714t25.714 10.857 25.714-10.857l292.571-292.571q10.857-10.857 10.857-25.714z" />
<glyph unicode="&#xf077;" glyph-name="chevron-up" d="M961.714 190.286l-94.857-94.286q-10.857-10.857-25.714-10.857t-25.714 10.857l-303.429 303.429-303.429-303.429q-10.857-10.857-25.714-10.857t-25.714 10.857l-94.857 94.286q-10.857 10.857-10.857 26t10.857 26l424 423.429q10.857 10.857 25.714 10.857t25.714-10.857l424-423.429q10.857-10.857 10.857-26t-10.857-26z" />
<glyph unicode="&#xf078;" glyph-name="chevron-down" d="M961.714 489.143l-424-423.429q-10.857-10.857-25.714-10.857t-25.714 10.857l-424 423.429q-10.857 10.857-10.857 26t10.857 26l94.857 94.286q10.857 10.857 25.714 10.857t25.714-10.857l303.429-303.429 303.429 303.429q10.857 10.857 25.714 10.857t25.714-10.857l94.857-94.286q10.857-10.857 10.857-26t-10.857-26z" />
<glyph unicode="&#xf079;" glyph-name="retweet" horiz-adv-x="1097" d="M731.429 91.428q0-7.429-5.429-12.857t-12.857-5.429h-548.571q-4.571 0-7.714 1.143t-5.143 4-3.143 4.571-1.714 6.571-0.571 6.571v342.857h-109.714q-14.857 0-25.714 10.857t-10.857 25.714q0 13.714 8.571 23.429l182.857 219.429q10.857 12.571 28 12.571t28-12.571l182.857-219.429q8.571-9.714 8.571-23.429 0-14.857-10.857-25.714t-25.714-10.857h-109.714v-219.429h329.143q9.143 0 14.286-6.286l91.429-109.714q4-6.286 4-12zM1097.143 329.143q0-13.714-8.571-23.429l-182.857-219.429q-11.429-13.143-28-13.143t-28 13.143l-182.857 219.429q-8.571 9.714-8.571 23.429 0 14.857 10.857 25.714t25.714 10.857h109.714v219.429h-329.143q-9.143 0-14.286 6.857l-91.429 109.714q-4 5.143-4 11.429 0 7.429 5.429 12.857t12.857 5.429h548.571q4.571 0 7.714-1.143t5.143-4 3.143-4.571 1.714-6.571 0.571-6.571v-342.857h109.714q14.857 0 25.714-10.857t10.857-25.714z" />
<glyph unicode="&#xf08e;" glyph-name="external-link" d="M804.571 420.571v-182.857q0-68-48.286-116.286t-116.286-48.286h-475.429q-68 0-116.286 48.286t-48.286 116.286v475.429q0 68 48.286 116.286t116.286 48.286h402.286q8 0 13.143-5.143t5.143-13.143v-36.571q0-8-5.143-13.143t-13.143-5.143h-402.286q-37.714 0-64.571-26.857t-26.857-64.571v-475.429q0-37.714 26.857-64.571t64.571-26.857h475.429q37.714 0 64.571 26.857t26.857 64.571v182.857q0 8 5.143 13.143t13.143 5.143h36.571q8 0 13.143-5.143t5.143-13.143zM1024 914.286v-292.571q0-14.857-10.857-25.714t-25.714-10.857-25.714 10.857l-100.571 100.571-372.571-372.571q-5.714-5.714-13.143-5.714t-13.143 5.714l-65.143 65.143q-5.714 5.714-5.714 13.143t5.714 13.143l372.571 372.571-100.571 100.571q-10.857 10.857-10.857 25.714t10.857 25.714 25.714 10.857h292.571q14.857 0 25.714-10.857t10.857-25.714z" />
<glyph unicode="&#xf099;" glyph-name="twitter" horiz-adv-x="951" d="M925.714 717.714q-38.286-56-92.571-95.429 0.571-8 0.571-24 0-74.286-21.714-148.286t-66-142-105.429-120.286-147.429-83.429-184.571-31.143q-154.857 0-283.429 82.857 20-2.286 44.571-2.286 128.571 0 229.143 78.857-60 1.143-107.429 36.857t-65.143 91.143q18.857-2.857 34.857-2.857 24.571 0 48.571 6.286-64 13.143-106 63.714t-42 117.429v2.286q38.857-21.714 83.429-23.429-37.714 25.143-60 65.714t-22.286 88q0 50.286 25.143 93.143 69.143-85.143 168.286-136.286t212.286-56.857q-4.571 21.714-4.571 42.286 0 76.571 54 130.571t130.571 54q80 0 134.857-58.286 62.286 12 117.143 44.571-21.143-65.714-81.143-101.714 53.143 5.714 106.286 28.571z" />
<glyph unicode="&#xf09a;" glyph-name="facebook, facebook-f" horiz-adv-x="602" d="M548 944v-150.857h-89.714q-49.143 0-66.286-20.571t-17.143-61.714v-108h167.429l-22.286-169.143h-145.143v-433.714h-174.857v433.714h-145.714v169.143h145.714v124.571q0 106.286 59.429 164.857t158.286 58.571q84 0 130.286-6.857z" />
<glyph unicode="&#xf0c9;" glyph-name="bars, navicon, reorder" horiz-adv-x="878" d="M877.714 182.857v-73.143q0-14.857-10.857-25.714t-25.714-10.857h-804.571q-14.857 0-25.714 10.857t-10.857 25.714v73.143q0 14.857 10.857 25.714t25.714 10.857h804.571q14.857 0 25.714-10.857t10.857-25.714zM877.714 475.428v-73.143q0-14.857-10.857-25.714t-25.714-10.857h-804.571q-14.857 0-25.714 10.857t-10.857 25.714v73.143q0 14.857 10.857 25.714t25.714 10.857h804.571q14.857 0 25.714-10.857t10.857-25.714zM877.714 768v-73.143q0-14.857-10.857-25.714t-25.714-10.857h-804.571q-14.857 0-25.714 10.857t-10.857 25.714v73.143q0 14.857 10.857 25.714t25.714 10.857h804.571q14.857 0 25.714-10.857t10.857-25.714z" />
<glyph unicode="&#xf0d2;" glyph-name="pinterest" horiz-adv-x="878" d="M877.714 438.857q0-119.429-58.857-220.286t-159.714-159.714-220.286-58.857q-63.429 0-124.571 18.286 33.714 53.143 44.571 93.714 5.143 19.429 30.857 120.571 11.429-22.286 41.714-38.571t65.143-16.286q69.143 0 123.429 39.143t84 107.714 29.714 154.286q0 65.143-34 122.286t-98.571 93.143-145.714 36q-60 0-112-16.571t-88.286-44-62.286-63.143-38.286-74-12.286-76.571q0-59.429 22.857-104.571t66.857-63.429q17.143-6.857 21.714 11.429 1.143 4 4.571 17.714t4.571 17.143q3.429 13.143-6.286 24.571-29.143 34.857-29.143 86.286 0 86.286 59.714 148.286t156.286 62q86.286 0 134.571-46.857t48.286-121.714q0-97.143-39.143-165.143t-100.286-68q-34.857 0-56 24.857t-13.143 59.714q4.571 20 15.143 53.429t17.143 58.857 6.571 43.143q0 28.571-15.429 47.429t-44 18.857q-35.429 0-60-32.571t-24.571-81.143q0-41.714 14.286-69.714l-56.571-238.857q-9.714-40-7.429-101.143-117.714 52-190.286 160.571t-72.571 241.714q0 119.429 58.857 220.286t159.714 159.714 220.286 58.857 220.286-58.857 159.714-159.714 58.857-220.286z" />
<glyph unicode="&#xf0d5;" glyph-name="google-plus" horiz-adv-x="1317" d="M821.143 429.143q0-118.857-49.714-211.714t-141.714-145.143-210.857-52.286q-85.143 0-162.857 33.143t-133.714 89.143-89.143 133.714-33.143 162.857 33.143 162.857 89.143 133.714 133.714 89.143 162.857 33.143q163.429 0 280.571-109.714l-113.714-109.143q-66.857 64.571-166.857 64.571-70.286 0-130-35.429t-94.571-96.286-34.857-132.857 34.857-132.857 94.571-96.286 130-35.429q47.429 0 87.143 13.143t65.429 32.857 44.857 44.857 28 47.429 12.286 42.286h-237.714v144h395.429q6.857-36 6.857-69.714zM1316.571 498.857v-120h-119.429v-119.429h-120v119.429h-119.429v120h119.429v119.429h120v-119.429h119.429z" />
<glyph unicode="&#xf0d7;" glyph-name="caret-down" horiz-adv-x="585" d="M585.143 548.571q0-14.857-10.857-25.714l-256-256q-10.857-10.857-25.714-10.857t-25.714 10.857l-256 256q-10.857 10.857-10.857 25.714t10.857 25.714 25.714 10.857h512q14.857 0 25.714-10.857t10.857-25.714z" />
<glyph unicode="&#xf0e1;" glyph-name="linkedin" horiz-adv-x="878" d="M199.429 593.714v-566.286h-188.571v566.286h188.571zM211.429 768.571q0.571-41.714-28.857-69.714t-77.429-28h-1.143q-46.857 0-75.429 28t-28.571 69.714q0 42.286 29.429 70t76.857 27.714 76-27.714 29.143-70zM877.714 352v-324.571h-188v302.857q0 60-23.143 94t-72.286 34q-36 0-60.286-19.714t-36.286-48.857q-6.286-17.143-6.286-46.286v-316h-188q1.143 228 1.143 369.714t-0.571 169.143l-0.571 27.429h188v-82.286h-1.143q11.429 18.286 23.429 32t32.286 29.714 49.714 24.857 65.429 8.857q97.714 0 157.143-64.857t59.429-190z" />
<glyph unicode="&#xf0e5;" glyph-name="comment-o" d="M512 731.428q-116.571 0-218-39.714t-161.143-107.143-59.714-145.714q0-64 40.857-122t115.143-100.286l49.714-28.571-15.429-54.857q-13.714-52-40-98.286 86.857 36 157.143 97.714l24.571 21.714 32.571-3.429q39.429-4.571 74.286-4.571 116.571 0 218 39.714t161.143 107.143 59.714 145.714-59.714 145.714-161.143 107.143-218 39.714zM1024 438.857q0-99.429-68.571-183.714t-186.286-133.143-257.143-48.857q-40 0-82.857 4.571-113.143-100-262.857-138.286-28-8-65.143-12.571h-2.857q-8.571 0-15.429 6t-9.143 15.714v0.571q-1.714 2.286-0.286 6.857t1.143 5.714 2.571 5.429l3.429 5.143t4 4.857 4.571 5.143q4 4.571 17.714 19.714t19.714 21.714 17.714 22.571 18.571 29.143 15.429 33.714 14.857 43.429q-89.714 50.857-141.429 125.714t-51.714 160.571q0 99.429 68.571 183.714t186.286 133.143 257.143 48.857 257.143-48.857 186.286-133.143 68.571-183.714z" />
<glyph unicode="&#xf104;" glyph-name="angle-left" horiz-adv-x="384" d="M358.286 640q0-7.429-5.714-13.143l-224.571-224.571 224.571-224.571q5.714-5.714 5.714-13.143t-5.714-13.143l-28.571-28.571q-5.714-5.714-13.143-5.714t-13.143 5.714l-266.286 266.286q-5.714 5.714-5.714 13.143t5.714 13.143l266.286 266.286q5.714 5.714 13.143 5.714t13.143-5.714l28.571-28.571q5.714-5.714 5.714-13.143z" />
<glyph unicode="&#xf105;" glyph-name="angle-right" horiz-adv-x="347" d="M340 402.286q0-7.429-5.714-13.143l-266.286-266.286q-5.714-5.714-13.143-5.714t-13.143 5.714l-28.571 28.571q-5.714 5.714-5.714 13.143t5.714 13.143l224.571 224.571-224.571 224.571q-5.714 5.714-5.714 13.143t5.714 13.143l28.571 28.571q5.714 5.714 13.143 5.714t13.143-5.714l266.286-266.286q5.714-5.714 5.714-13.143z" />
<glyph unicode="&#xf106;" glyph-name="angle-up" horiz-adv-x="658" d="M614.286 274.286q0-7.429-5.714-13.143l-28.571-28.571q-5.714-5.714-13.143-5.714t-13.143 5.714l-224.571 224.571-224.571-224.571q-5.714-5.714-13.143-5.714t-13.143 5.714l-28.571 28.571q-5.714 5.714-5.714 13.143t5.714 13.143l266.286 266.286q5.714 5.714 13.143 5.714t13.143-5.714l266.286-266.286q5.714-5.714 5.714-13.143z" />
<glyph unicode="&#xf107;" glyph-name="angle-down" horiz-adv-x="658" d="M614.286 530.286q0-7.429-5.714-13.143l-266.286-266.286q-5.714-5.714-13.143-5.714t-13.143 5.714l-266.286 266.286q-5.714 5.714-5.714 13.143t5.714 13.143l28.571 28.571q5.714 5.714 13.143 5.714t13.143-5.714l224.571-224.571 224.571 224.571q5.714 5.714 13.143 5.714t13.143-5.714l28.571-28.571q5.714-5.714 5.714-13.143z" />
<glyph unicode="&#xf164;" glyph-name="thumbs-up" horiz-adv-x="914" d="M146.286 182.857q0 14.857-10.857 25.714t-25.714 10.857q-15.429 0-26-10.857t-10.571-25.714q0-15.429 10.571-26t26-10.571q14.857 0 25.714 10.571t10.857 26zM237.714 475.428v-365.714q0-14.857-10.857-25.714t-25.714-10.857h-164.571q-14.857 0-25.714 10.857t-10.857 25.714v365.714q0 14.857 10.857 25.714t25.714 10.857h164.571q14.857 0 25.714-10.857t10.857-25.714zM914.286 475.428q0-49.143-31.429-85.143 8.571-25.143 8.571-43.429 1.714-43.429-24.571-78.286 9.714-32 0-66.857-8.571-32.571-30.857-53.714 5.143-64-28-103.429-36.571-43.429-112.571-44.571h-73.714q-37.714 0-82.286 8.857t-69.429 16.571-68.857 22.571q-70.286 24.571-90.286 25.143-14.857 0.571-25.714 11.143t-10.857 25.429v366.286q0 14.286 10.286 24.857t24.571 11.714q13.714 1.143 43.429 33.714t57.714 69.143q38.857 49.714 57.714 68.571 10.286 10.286 17.714 27.429t10 27.714 7.714 34.571q4 22.286 7.143 34.857t11.143 29.714 19.429 28.571q10.857 10.857 25.714 10.857 26.286 0 47.143-6t34.286-14.857 22.857-23.143 13.714-25.714 6.857-28.571 2.857-25.714 0.286-22.286q0-21.714-5.429-43.429t-10.857-34.286-15.714-32q-1.714-3.429-5.714-10.286t-6.286-12.571-4.571-13.714h158.286q44.571 0 77.143-32.571t32.571-77.143z" />
<glyph unicode="&#xf165;" glyph-name="thumbs-down" horiz-adv-x="914" d="M146.286 621.714q0-14.857-10.857-25.714t-25.714-10.857q-15.429 0-26 10.857t-10.571 25.714q0 15.429 10.571 26t26 10.571q14.857 0 25.714-10.571t10.857-26zM237.714 329.143v365.714q0 14.857-10.857 25.714t-25.714 10.857h-164.571q-14.857 0-25.714-10.857t-10.857-25.714v-365.714q0-14.857 10.857-25.714t25.714-10.857h164.571q14.857 0 25.714 10.857t10.857 25.714zM882.857 414.286q31.429-34.857 31.429-85.143-0.571-44.571-32.857-77.143t-76.857-32.571h-158.286q2.286-8 4.571-13.714t6.286-12.571 5.714-10.286q10.286-21.143 15.429-32.571t10.857-33.429 5.714-43.714q0-13.714-0.286-22.286t-2.857-25.714-6.857-28.571-13.714-25.714-22.857-23.143-34.286-14.857-47.143-6q-14.857 0-25.714 10.857-11.429 11.429-19.429 28.571t-11.143 29.714-7.143 34.857q-5.143 24-7.714 34.571t-10 27.714-17.714 27.429q-18.857 18.857-57.714 68.571-28 36.571-57.714 69.143t-43.429 33.714q-14.286 1.143-24.571 11.714t-10.286 24.857v366.286q0 14.857 10.857 25.429t25.714 11.143q20 0.571 90.286 25.143 44 14.857 68.857 22.571t69.429 16.571 82.286 8.857h73.714q76-1.143 112.571-44.571 33.143-39.429 28-103.429 22.286-21.143 30.857-53.714 9.714-34.857 0-66.857 26.286-34.857 24.571-78.286 0-18.286-8.571-43.429z" />
<glyph unicode="&#xf16d;" glyph-name="instagram" horiz-adv-x="878" d="M778.286 136v370.286h-77.143q11.429-36 11.429-74.857 0-72-36.571-132.857t-99.429-96.286-137.143-35.429q-112.571 0-192.571 77.429t-80 187.143q0 38.857 11.429 74.857h-80.571v-370.286q0-14.857 10-24.857t24.857-10h610.857q14.286 0 24.571 10t10.286 24.857zM616 440.571q0 70.857-51.714 120.857t-124.857 50q-72.571 0-124.286-50t-51.714-120.857 51.714-120.857 124.286-50q73.143 0 124.857 50t51.714 120.857zM778.286 646.286v94.286q0 16-11.429 27.714t-28 11.714h-99.429q-16.571 0-28-11.714t-11.429-27.714v-94.286q0-16.571 11.429-28t28-11.429h99.429q16.571 0 28 11.429t11.429 28zM877.714 765.143v-652.571q0-46.286-33.143-79.429t-79.429-33.143h-652.571q-46.286 0-79.429 33.143t-33.143 79.429v652.571q0 46.286 33.143 79.429t79.429 33.143h652.571q46.286 0 79.429-33.143t33.143-79.429z" />
<glyph unicode="&#xf173;" glyph-name="tumblr" horiz-adv-x="624" d="M539.429 191.428l45.714-135.429q-13.143-20-63.429-37.714t-101.143-18.286q-59.429-1.143-108.857 14.857t-81.429 42.286-54.286 60.571-31.714 68.571-9.429 67.429v310.857h-96v122.857q41.143 14.857 73.714 39.714t52 51.429 33.143 58.286 19.429 56.571 8.571 50.571q0.571 2.857 2.571 4.857t4.286 2h139.429v-242.286h190.286v-144h-190.857v-296q0-17.143 3.714-32t12.857-30 28.286-23.714 46.571-8q44.571 1.143 76.571 16.571z" />
<glyph unicode="&#xf1a0;" glyph-name="google" horiz-adv-x="860" d="M438.857 501.714h414.286q6.857-38.286 6.857-73.143 0-124-52-221.429t-148.286-152.286-220.857-54.857q-89.714 0-170.857 34.571t-140 93.429-93.429 140-34.571 170.857 34.571 170.857 93.429 140 140 93.429 170.857 34.571q171.429 0 294.286-114.857l-119.429-114.857q-70.286 68-174.857 68-73.714 0-136.286-37.143t-99.143-100.857-36.571-139.143 36.571-139.143 99.143-100.857 136.286-37.143q49.714 0 91.429 13.714t68.571 34.286 46.857 46.857 29.429 49.714 12.857 44.571h-249.143v150.857z" />
<glyph unicode="" glyph-name="google" horiz-adv-x="860" d="M438.857 501.714h414.286q6.857-38.286 6.857-73.143 0-124-52-221.429t-148.286-152.286-220.857-54.857q-89.714 0-170.857 34.571t-140 93.429-93.429 140-34.571 170.857 34.571 170.857 93.429 140 140 93.429 170.857 34.571q171.429 0 294.286-114.857l-119.429-114.857q-70.286 68-174.857 68-73.714 0-136.286-37.143t-99.143-100.857-36.571-139.143 36.571-139.143 99.143-100.857 136.286-37.143q49.714 0 91.429 13.714t68.571 34.286 46.857 46.857 29.429 49.714 12.857 44.571h-249.143v150.857z" />
<glyph unicode="lock" glyph-name="lock" d="M644 608.857v86c0 72-60 132-132 132s-132-60-132-132v-86h264zM512 224.857c46 0 86 40 86 86s-40 86-86 86-86-40-86-86 40-86 86-86zM768 608.857c46 0 86-38 86-84v-428c0-46-40-84-86-84h-512c-46 0-86 38-86 84v428c0 46 40 84 86 84h42v86c0 118 96 214 214 214s214-96 214-214v-86h42z" />
<glyph unicode="https" glyph-name="lock" d="M644 608.857v86c0 72-60 132-132 132s-132-60-132-132v-86h264zM512 224.857c46 0 86 40 86 86s-40 86-86 86-86-40-86-86 40-86 86-86zM768 608.857c46 0 86-38 86-84v-428c0-46-40-84-86-84h-512c-46 0-86 38-86 84v428c0 46 40 84 86 84h42v86c0 118 96 214 214 214s214-96 214-214v-86h42z" />
</font>
</defs>
</svg>
